<?xml version="1.0" encoding="utf-8"?>
<!-- Generator: Adobe Illustrator 24.3.0, SVG Export Plug-In . SVG Version: 6.00 Build 0)  -->
<svg version="1.1" id="Layer_1" xmlns="http://www.w3.org/2000/svg" xmlns:xlink="http://www.w3.org/1999/xlink" x="0px" y="0px"
	 viewBox="0 0 512 512" style="enable-background:new 0 0 512 512;" xml:space="preserve">
<style type="text/css">
	.st0{fill:#EB078E;}
</style>
<g id="XMLID_3_">
	<path id="XMLID_33_" class="st0" d="M142.98,221.69c13.51-3.7,23.75-16.92,26.02-33.28l1.14-8.11h-25.03
		c-44.23,0-61.15,4.55-75.65,20.05c-8.53,9.1-14.08,19.77-16.64,31.85c-1.14,5.4-1.71,2.13-2.42-14.93
		c-0.85-19.77-1.28-22.47-5.69-29.15c-5.4-8.11-17.06-14.79-28.73-16.35l-7.39-1l0.71,34.98c0.57,30.57,1.28,36.26,4.69,44.94
		c7.25,18.34,19.77,29.29,41.52,36.26l10.24,3.27l-18.91,0.14c-14.5,0.14-20.76,1-26.45,3.56C8.88,299.19-0.08,313.7-0.08,327.07
		v5.26l34.7-0.71c37.26-0.85,44.08-2.13,57.45-11.52c8.82-6.11,17.78-18.91,21.47-31l3.13-9.95l0.85,17.92
		c0.85,18.77,2.42,23.61,10.24,32c5.97,6.4,12.8,10.1,22.47,11.8l0,0c4.12,0.71,8.25,0.71,9.1,0c2.7-2.42,0.14-64.56-3.13-74.94
		c-5.83-18.49-18.77-31.29-38.82-38.11l-11.95-4.12h15.36C129.47,223.54,139.42,222.69,142.98,221.69z M108.71,233.64
		c6.26,6.68,8.82,13.37,8.82,23.89c0,10.81-7.96,23.61-16.5,27.87l0,0c-24.17,11.38-48.78-2.99-49.2-28.3
		C51.4,227.1,88.23,211.88,108.71,233.64z"/>
	<path id="XMLID_36_" class="st0" d="M283.91,251.41c-3.7-21.76-15.93-35.12-34.56-37.97c-8.82-1.28-20.48,1.42-28.01,6.83
		l-5.12,3.56v-11.95c0-18.49-6.26-29.86-17.06-29.86h-4.27v61.43v60.86h10.1c9.53,0,9.81,0.28,9.81-4.41v-4.83l4.41,3.98
		c2.42,2.28,7.54,5.12,11.23,6.54l0,0c8.82,2.84,25.74,2.28,33.42-2.28C279.07,294.64,287.6,272.6,283.91,251.41z M250.35,289.1
		L250.35,289.1c-7.82,3.7-13.08,3.7-20.62,0c-9.53-4.69-13.79-13.65-13.94-28.58c0-21.05,9.53-32.71,25.74-31
		c14.08,1.42,22.04,12.8,22.04,31.85C263.57,275.3,258.88,285.12,250.35,289.1z"/>
	<path id="XMLID_40_" class="st0" d="M430.09,304.88c-1.28-0.14-3.41-2.56-4.98-5.55c-2.13-4.12-2.7-11.8-2.7-34.41
		c0-32.42-1.42-38.4-10.52-44.94c-19.34-13.79-56.74-6.97-64.56,11.66c-4.27,10.38-3.56,11.52,6.97,11.52
		c8.67,0,9.81-0.43,12.51-5.4c3.84-6.68,10.81-9.53,20.9-8.53c8.82,1,14.79,5.4,14.79,11.23c0,6.68-5.4,9.39-24.89,12.37
		c-26.17,4.12-33.13,8.25-35.69,22.04c-2.56,13.65,4.41,26.31,17.78,30.57l0,0c7.96,2.84,25.45,1.56,35.27-3.13l7.96-3.7l2.7,3.84
		c3.27,4.69,12.51,6.54,20.76,4.27C429.52,305.88,431.37,305.02,430.09,304.88z M398.95,282.98c-1,1.85-4.98,4.55-9.1,6.26l0,0
		c-8.82,3.56-13.51,3.56-21.05,0.28c-6.54-2.84-8.67-7.68-6.11-14.22c2.28-6.11,5.69-7.68,21.62-10.1
		c7.39-1.14,14.08-2.42,14.93-2.99C401.37,260.8,401.23,279,398.95,282.98z"/>
	<path id="XMLID_41_" class="st0" d="M459.39,306.73c-21.9-5.26-32.71-22.47-31.29-49.2c1.14-21.19,7.54-32.42,22.75-40.1
		c18.91-9.53,49.35-2.13,56.74,13.65c6.54,14.08,6.4,14.08-5.55,14.08c-9.95,0-10.81-0.28-11.95-4.55
		c-1.42-5.55-10.81-11.66-17.92-11.66c-13.51,0-22.47,9.67-24.17,26.02c-1.42,13.51,0.57,21.76,6.97,29.01
		c10.67,12.23,27.59,9.53,34.27-5.4c3.56-8.11,3.7-8.25,12.51-8.25c4.83,0,9.24,0.57,9.67,1.42c0.43,0.71-0.28,5.12-1.71,9.53
		C504.04,300.76,481.43,311.99,459.39,306.73L459.39,306.73z"/>
	<path id="XMLID_42_" class="st0" d="M290.59,259.52V214.3l9.53,0.57c9.24,0.57,9.53,0.71,10.38,6.54l0.85,5.97l4.55-4.98
		c5.4-5.83,14.08-9.81,21.62-9.81c5.4,0,5.4,0.14,5.4,9.95v9.95h-8.11c-6.4,0-9.39,1.14-14.22,5.4
		c-8.11,7.11-10.24,16.07-10.24,44.08v22.61h-9.95h-9.95L290.59,259.52L290.59,259.52z"/>
</g>
</svg>
